<?xml version="1.0" encoding="UTF-8" standalone="no"?><svg xmlns="http://www.w3.org/2000/svg" xmlns:xlink="http://www.w3.org/1999/xlink" contentScriptType="application/ecmascript" contentStyleType="text/css" height="686px" preserveAspectRatio="none" style="width:1209px;height:686px;" version="1.1" viewBox="0 0 1209 686" width="1209px" zoomAndPan="magnify"><defs><filter height="300%" id="ft7qkpa583px8" width="300%" x="-1" y="-1"><feGaussianBlur result="blurOut" stdDeviation="2.0"/><feColorMatrix in="blurOut" result="blurOut2" type="matrix" values="0 0 0 0 0 0 0 0 0 0 0 0 0 0 0 0 0 0 .4 0"/><feOffset dx="4.0" dy="4.0" in="blurOut2" result="blurOut3"/><feBlend in="SourceGraphic" in2="blurOut3" mode="normal"/></filter></defs><g><!--cluster mini_server--><polygon fill="#FFFFFF" filter="url(#ft7qkpa583px8)" points="22,24,119,24,126,46.2969,1187,46.2969,1187,674,22,674,22,24" style="stroke: #000000; stroke-width: 1.5;"/><line style="stroke: #000000; stroke-width: 1.5;" x1="22" x2="126" y1="46.2969" y2="46.2969"/><text fill="#000000" font-family="sans-serif" font-size="14" font-weight="bold" lengthAdjust="spacingAndGlyphs" textLength="91" x="26" y="38.9951">mini_server</text><!--class mini_server.Encapsulation--><rect fill="#FEFECE" filter="url(#ft7qkpa583px8)" height="86.4141" id="mini_server.Encapsulation" style="stroke: #A80036; stroke-width: 1.5;" width="526" x="202.5" y="265"/><ellipse cx="416.75" cy="281" fill="#ADD1B2" rx="11" ry="11" style="stroke: #A80036; stroke-width: 1.0;"/><path d="M419.7188,286.6406 Q419.1406,286.9375 418.5,287.0781 Q417.8594,287.2344 417.1563,287.2344 Q414.6563,287.2344 413.3281,285.5938 Q412.0156,283.9375 412.0156,280.8125 Q412.0156,277.6875 413.3281,276.0313 Q414.6563,274.375 417.1563,274.375 Q417.8594,274.375 418.5,274.5313 Q419.1563,274.6875 419.7188,274.9844 L419.7188,277.7031 Q419.0938,277.125 418.5,276.8594 Q417.9063,276.5781 417.2813,276.5781 Q415.9375,276.5781 415.25,277.6563 Q414.5625,278.7188 414.5625,280.8125 Q414.5625,282.9063 415.25,283.9844 Q415.9375,285.0469 417.2813,285.0469 Q417.9063,285.0469 418.5,284.7813 Q419.0938,284.5 419.7188,283.9219 L419.7188,286.6406 Z "/><text fill="#000000" font-family="sans-serif" font-size="12" lengthAdjust="spacingAndGlyphs" textLength="89" x="437.25" y="285.1543">Encapsulation</text><line style="stroke: #A80036; stroke-width: 1.5;" x1="203.5" x2="727.5" y1="297" y2="297"/><line style="stroke: #A80036; stroke-width: 1.5;" x1="203.5" x2="727.5" y1="305" y2="305"/><ellipse cx="213.5" cy="316.9023" fill="#84BE84" rx="3" ry="3" style="stroke: #038048; stroke-width: 1.0;"/><text fill="#000000" font-family="sans-serif" font-size="11" lengthAdjust="spacingAndGlyphs" text-decoration="underline" textLength="244" x="222.5" y="319.2104">getHeader(std::vector&lt;char&gt;&amp; frame) : T*</text><line style="stroke: #000000; stroke-width: 1.0;" x1="222.5" x2="466.5" y1="321.2104" y2="321.2104"/><ellipse cx="213.5" cy="329.707" fill="#84BE84" rx="3" ry="3" style="stroke: #038048; stroke-width: 1.0;"/><text fill="#000000" font-family="sans-serif" font-size="11" lengthAdjust="spacingAndGlyphs" text-decoration="underline" textLength="284" x="222.5" y="332.0151">getBody(const std::vector&lt;char&gt;&amp; frame) : char*</text><line style="stroke: #000000; stroke-width: 1.0;" x1="222.5" x2="506.5" y1="334.0151" y2="334.0151"/><ellipse cx="213.5" cy="342.5117" fill="#84BE84" rx="3" ry="3" style="stroke: #038048; stroke-width: 1.0;"/><text fill="#000000" font-family="sans-serif" font-size="11" lengthAdjust="spacingAndGlyphs" text-decoration="underline" textLength="500" x="222.5" y="344.8198">encapsulate(const void* buffer, size_t bufferSize, const T&amp; header) : std::vector&lt;char&gt;</text><line style="stroke: #000000; stroke-width: 1.0;" x1="222.5" x2="722.5" y1="346.8198" y2="346.8198"/><!--class mini_server.HandlerInterface--><rect fill="#FEFECE" filter="url(#ft7qkpa583px8)" height="60.8047" id="mini_server.HandlerInterface" style="stroke: #A80036; stroke-width: 1.5;" width="380" x="275.5" y="168.5"/><ellipse cx="408.25" cy="184.5" fill="#A9DCDF" rx="11" ry="11" style="stroke: #A80036; stroke-width: 1.0;"/><path d="M408.3594,179.8438 L407.2031,184.9219 L409.5313,184.9219 L408.3594,179.8438 Z M406.875,177.6094 L409.8594,177.6094 L413.2188,190 L410.7656,190 L410,186.9375 L406.7188,186.9375 L405.9688,190 L403.5313,190 L406.875,177.6094 Z "/><text fill="#000000" font-family="sans-serif" font-size="12" font-style="italic" lengthAdjust="spacingAndGlyphs" textLength="106" x="428.75" y="188.6543">HandlerInterface</text><line style="stroke: #A80036; stroke-width: 1.5;" x1="276.5" x2="654.5" y1="200.5" y2="200.5"/><line style="stroke: #A80036; stroke-width: 1.5;" x1="276.5" x2="654.5" y1="208.5" y2="208.5"/><ellipse cx="286.5" cy="220.4023" fill="#84BE84" rx="3" ry="3" style="stroke: #038048; stroke-width: 1.0;"/><text fill="#000000" font-family="sans-serif" font-size="11" font-style="italic" lengthAdjust="spacingAndGlyphs" textLength="354" x="295.5" y="222.7104">handle(int socket, const std::string&amp; in, std::string&amp; out) : void</text><!--class mini_server.IpcServer--><rect fill="#FEFECE" filter="url(#ft7qkpa583px8)" height="252.875" id="mini_server.IpcServer" style="stroke: #A80036; stroke-width: 1.5;" width="855" x="38" y="404.5"/><ellipse cx="432.25" cy="420.5" fill="#ADD1B2" rx="11" ry="11" style="stroke: #A80036; stroke-width: 1.0;"/><path d="M435.2188,426.1406 Q434.6406,426.4375 434,426.5781 Q433.3594,426.7344 432.6563,426.7344 Q430.1563,426.7344 428.8281,425.0938 Q427.5156,423.4375 427.5156,420.3125 Q427.5156,417.1875 428.8281,415.5313 Q430.1563,413.875 432.6563,413.875 Q433.3594,413.875 434,414.0313 Q434.6563,414.1875 435.2188,414.4844 L435.2188,417.2031 Q434.5938,416.625 434,416.3594 Q433.4063,416.0781 432.7813,416.0781 Q431.4375,416.0781 430.75,417.1563 Q430.0625,418.2188 430.0625,420.3125 Q430.0625,422.4063 430.75,423.4844 Q431.4375,424.5469 432.7813,424.5469 Q433.4063,424.5469 434,424.2813 Q434.5938,424 435.2188,423.4219 L435.2188,426.1406 Z "/><text fill="#000000" font-family="sans-serif" font-size="12" lengthAdjust="spacingAndGlyphs" textLength="58" x="452.75" y="424.6543">IpcServer</text><line style="stroke: #A80036; stroke-width: 1.5;" x1="39" x2="892" y1="436.5" y2="436.5"/><line style="stroke: #A80036; stroke-width: 1.5;" x1="39" x2="892" y1="444.5" y2="444.5"/><ellipse cx="49" cy="456.4023" fill="#84BE84" rx="3" ry="3" style="stroke: #038048; stroke-width: 1.0;"/><text fill="#000000" font-family="sans-serif" font-size="11" lengthAdjust="spacingAndGlyphs" textLength="99" x="58" y="458.7104">isRunning() : bool</text><ellipse cx="49" cy="469.207" fill="#84BE84" rx="3" ry="3" style="stroke: #038048; stroke-width: 1.0;"/><text fill="#000000" font-family="sans-serif" font-size="11" lengthAdjust="spacingAndGlyphs" textLength="192" x="58" y="471.5151">getClientsCount() : size_t {query}</text><ellipse cx="49" cy="482.0117" fill="#84BE84" rx="3" ry="3" style="stroke: #038048; stroke-width: 1.0;"/><text fill="#000000" font-family="sans-serif" font-size="11" lengthAdjust="spacingAndGlyphs" textLength="829" x="58" y="484.3198">createFrame(const void* buffer, size_t bufferSize, unsigned long expire, const IpcServer::MessageTypeEnum&amp; type) : std::vector&lt;char&gt; {query}</text><ellipse cx="49" cy="494.8164" fill="#84BE84" rx="3" ry="3" style="stroke: #038048; stroke-width: 1.0;"/><text fill="#000000" font-family="sans-serif" font-size="11" lengthAdjust="spacingAndGlyphs" textLength="298" x="58" y="497.1245">getExpire(unsigned long ttl) : unsigned long {query}</text><ellipse cx="49" cy="507.6211" fill="#84BE84" rx="3" ry="3" style="stroke: #038048; stroke-width: 1.0;"/><text fill="#000000" font-family="sans-serif" font-size="11" lengthAdjust="spacingAndGlyphs" textLength="261" x="58" y="509.9292">broadcast(const std::string&amp; message) : void</text><ellipse cx="49" cy="520.4258" fill="#84BE84" rx="3" ry="3" style="stroke: #038048; stroke-width: 1.0;"/><text fill="#000000" font-family="sans-serif" font-size="11" lengthAdjust="spacingAndGlyphs" textLength="552" x="58" y="522.7339">broadcast(const void* buffer, size_t bufferSize, unsigned long ttl, MessageTypeEnum type) : void</text><ellipse cx="49" cy="533.2305" fill="#84BE84" rx="3" ry="3" style="stroke: #038048; stroke-width: 1.0;"/><text fill="#000000" font-family="sans-serif" font-size="11" lengthAdjust="spacingAndGlyphs" textLength="94" x="58" y="535.5386">runClient() : void</text><ellipse cx="49" cy="546.0352" fill="#84BE84" rx="3" ry="3" style="stroke: #038048; stroke-width: 1.0;"/><text fill="#000000" font-family="sans-serif" font-size="11" lengthAdjust="spacingAndGlyphs" textLength="514" x="58" y="548.3433">send(int s, const std::string&amp; message, unsigned long ttl, MessageTypeEnum type) : void</text><ellipse cx="49" cy="558.8398" fill="#84BE84" rx="3" ry="3" style="stroke: #038048; stroke-width: 1.0;"/><text fill="#000000" font-family="sans-serif" font-size="11" lengthAdjust="spacingAndGlyphs" textLength="556" x="58" y="561.1479">send(int s, const void* buffer, size_t bufferSize, unsigned long ttl, MessageTypeEnum type) : void</text><ellipse cx="49" cy="571.6445" fill="#84BE84" rx="3" ry="3" style="stroke: #038048; stroke-width: 1.0;"/><text fill="#000000" font-family="sans-serif" font-size="11" lengthAdjust="spacingAndGlyphs" textLength="327" x="58" y="573.9526">sendFrame(int s, const std::vector&lt;char&gt;&amp; frame) : void</text><ellipse cx="49" cy="584.4492" fill="#84BE84" rx="3" ry="3" style="stroke: #038048; stroke-width: 1.0;"/><text fill="#000000" font-family="sans-serif" font-size="11" lengthAdjust="spacingAndGlyphs" textLength="75" x="58" y="586.7573">serve() : void</text><ellipse cx="49" cy="597.2539" fill="#84BE84" rx="3" ry="3" style="stroke: #038048; stroke-width: 1.0;"/><text fill="#000000" font-family="sans-serif" font-size="11" lengthAdjust="spacingAndGlyphs" textLength="235" x="58" y="599.562">setOnClose(CloseHandler onClose) : void</text><ellipse cx="49" cy="610.0586" fill="#84BE84" rx="3" ry="3" style="stroke: #038048; stroke-width: 1.0;"/><text fill="#000000" font-family="sans-serif" font-size="11" lengthAdjust="spacingAndGlyphs" textLength="326" x="58" y="612.3667">setOnMessage(StringMessageHandler onMessage) : void</text><ellipse cx="49" cy="622.8633" fill="#84BE84" rx="3" ry="3" style="stroke: #038048; stroke-width: 1.0;"/><text fill="#000000" font-family="sans-serif" font-size="11" lengthAdjust="spacingAndGlyphs" textLength="328" x="58" y="625.1714">setOnMessage(BinaryMessageHandler onMessage) : void</text><ellipse cx="49" cy="635.668" fill="#84BE84" rx="3" ry="3" style="stroke: #038048; stroke-width: 1.0;"/><text fill="#000000" font-family="sans-serif" font-size="11" lengthAdjust="spacingAndGlyphs" textLength="160" x="58" y="637.9761">setSocket(int _socket) : void</text><ellipse cx="49" cy="648.4727" fill="#84BE84" rx="3" ry="3" style="stroke: #038048; stroke-width: 1.0;"/><text fill="#000000" font-family="sans-serif" font-size="11" lengthAdjust="spacingAndGlyphs" textLength="68" x="58" y="650.7808">stop() : void</text><!--class mini_server.SocketFactory--><rect fill="#FEFECE" filter="url(#ft7qkpa583px8)" height="73.6094" id="mini_server.SocketFactory" style="stroke: #A80036; stroke-width: 1.5;" width="432" x="249.5" y="59"/><ellipse cx="416.75" cy="75" fill="#ADD1B2" rx="11" ry="11" style="stroke: #A80036; stroke-width: 1.0;"/><path d="M419.7188,80.6406 Q419.1406,80.9375 418.5,81.0781 Q417.8594,81.2344 417.1563,81.2344 Q414.6563,81.2344 413.3281,79.5938 Q412.0156,77.9375 412.0156,74.8125 Q412.0156,71.6875 413.3281,70.0313 Q414.6563,68.375 417.1563,68.375 Q417.8594,68.375 418.5,68.5313 Q419.1563,68.6875 419.7188,68.9844 L419.7188,71.7031 Q419.0938,71.125 418.5,70.8594 Q417.9063,70.5781 417.2813,70.5781 Q415.9375,70.5781 415.25,71.6563 Q414.5625,72.7188 414.5625,74.8125 Q414.5625,76.9063 415.25,77.9844 Q415.9375,79.0469 417.2813,79.0469 Q417.9063,79.0469 418.5,78.7813 Q419.0938,78.5 419.7188,77.9219 L419.7188,80.6406 Z "/><text fill="#000000" font-family="sans-serif" font-size="12" lengthAdjust="spacingAndGlyphs" textLength="89" x="437.25" y="79.1543">SocketFactory</text><line style="stroke: #A80036; stroke-width: 1.5;" x1="250.5" x2="680.5" y1="91" y2="91"/><line style="stroke: #A80036; stroke-width: 1.5;" x1="250.5" x2="680.5" y1="99" y2="99"/><ellipse cx="260.5" cy="110.9023" fill="#84BE84" rx="3" ry="3" style="stroke: #038048; stroke-width: 1.0;"/><text fill="#000000" font-family="sans-serif" font-size="11" lengthAdjust="spacingAndGlyphs" text-decoration="underline" textLength="280" x="269.5" y="113.2104">createClientSocket(const std::string&amp; name) : int</text><line style="stroke: #000000; stroke-width: 1.0;" x1="269.5" x2="549.5" y1="115.2104" y2="115.2104"/><ellipse cx="260.5" cy="123.707" fill="#84BE84" rx="3" ry="3" style="stroke: #038048; stroke-width: 1.0;"/><text fill="#000000" font-family="sans-serif" font-size="11" lengthAdjust="spacingAndGlyphs" text-decoration="underline" textLength="406" x="269.5" y="126.0151">createServerSocket(const std::string&amp; name, int maxConnections) : int</text><line style="stroke: #000000; stroke-width: 1.0;" x1="269.5" x2="675.5" y1="128.0151" y2="128.0151"/><!--class mini_server.IpcServer::MessageTypeEnum--><rect fill="#FEFECE" filter="url(#ft7qkpa583px8)" height="99.2188" id="mini_server.IpcServer::MessageTypeEnum" style="stroke: #A80036; stroke-width: 1.5;" width="218" x="953" y="258.5"/><ellipse cx="968" cy="274.5" fill="#EB937F" rx="11" ry="11" style="stroke: #A80036; stroke-width: 1.0;"/><path d="M972.1094,280.5 L964.3906,280.5 L964.3906,268.1094 L972.1094,268.1094 L972.1094,270.2656 L966.8438,270.2656 L966.8438,272.9375 L971.6094,272.9375 L971.6094,275.0938 L966.8438,275.0938 L966.8438,278.3438 L972.1094,278.3438 L972.1094,280.5 Z "/><text fill="#000000" font-family="sans-serif" font-size="12" lengthAdjust="spacingAndGlyphs" textLength="186" x="982" y="278.6543">IpcServer::MessageTypeEnum</text><line style="stroke: #A80036; stroke-width: 1.5;" x1="954" x2="1170" y1="290.5" y2="290.5"/><text fill="#000000" font-family="sans-serif" font-size="11" lengthAdjust="spacingAndGlyphs" textLength="56" x="959" y="304.7104">TYPE_ACK</text><text fill="#000000" font-family="sans-serif" font-size="11" lengthAdjust="spacingAndGlyphs" textLength="88" x="959" y="317.5151">TYPE_CONTROL</text><text fill="#000000" font-family="sans-serif" font-size="11" lengthAdjust="spacingAndGlyphs" textLength="57" x="959" y="330.3198">TYPE_MAT</text><text fill="#000000" font-family="sans-serif" font-size="11" lengthAdjust="spacingAndGlyphs" textLength="98" x="959" y="343.1245">TYPE_TELEMETRY</text><line style="stroke: #A80036; stroke-width: 1.5;" x1="954" x2="1170" y1="349.7188" y2="349.7188"/><!--class mini_server.IpcServer::MessageHeader--><rect fill="#FEFECE" filter="url(#ft7qkpa583px8)" height="99.2188" id="mini_server.IpcServer::MessageHeader" style="stroke: #A80036; stroke-width: 1.5;" width="200" x="962" y="124.5"/><ellipse cx="977" cy="140.5" fill="#ADD1B2" rx="11" ry="11" style="stroke: #A80036; stroke-width: 1.0;"/><path d="M979.9688,146.1406 Q979.3906,146.4375 978.75,146.5781 Q978.1094,146.7344 977.4063,146.7344 Q974.9063,146.7344 973.5781,145.0938 Q972.2656,143.4375 972.2656,140.3125 Q972.2656,137.1875 973.5781,135.5313 Q974.9063,133.875 977.4063,133.875 Q978.1094,133.875 978.75,134.0313 Q979.4063,134.1875 979.9688,134.4844 L979.9688,137.2031 Q979.3438,136.625 978.75,136.3594 Q978.1563,136.0781 977.5313,136.0781 Q976.1875,136.0781 975.5,137.1563 Q974.8125,138.2188 974.8125,140.3125 Q974.8125,142.4063 975.5,143.4844 Q976.1875,144.5469 977.5313,144.5469 Q978.1563,144.5469 978.75,144.2813 Q979.3438,144 979.9688,143.4219 L979.9688,146.1406 Z "/><text fill="#000000" font-family="sans-serif" font-size="12" lengthAdjust="spacingAndGlyphs" textLength="168" x="991" y="144.6543">IpcServer::MessageHeader</text><line style="stroke: #A80036; stroke-width: 1.5;" x1="963" x2="1161" y1="156.5" y2="156.5"/><ellipse cx="973" cy="168.4023" fill="none" rx="3" ry="3" style="stroke: #038048; stroke-width: 1.0;"/><text fill="#000000" font-family="sans-serif" font-size="11" lengthAdjust="spacingAndGlyphs" textLength="146" x="982" y="170.7104">type : MessageTypeEnum</text><ellipse cx="973" cy="181.207" fill="none" rx="3" ry="3" style="stroke: #038048; stroke-width: 1.0;"/><text fill="#000000" font-family="sans-serif" font-size="11" lengthAdjust="spacingAndGlyphs" textLength="122" x="982" y="183.5151">magick : unsigned int</text><ellipse cx="973" cy="194.0117" fill="none" rx="3" ry="3" style="stroke: #038048; stroke-width: 1.0;"/><text fill="#000000" font-family="sans-serif" font-size="11" lengthAdjust="spacingAndGlyphs" textLength="104" x="982" y="196.3198">size : unsigned int</text><ellipse cx="973" cy="206.8164" fill="none" rx="3" ry="3" style="stroke: #038048; stroke-width: 1.0;"/><text fill="#000000" font-family="sans-serif" font-size="11" lengthAdjust="spacingAndGlyphs" textLength="127" x="982" y="209.1245">expire : unsigned long</text><line style="stroke: #A80036; stroke-width: 1.5;" x1="963" x2="1161" y1="215.7188" y2="215.7188"/><!--class mini_server.IpcServer.MessageHeader--><rect fill="#FEFECE" filter="url(#ft7qkpa583px8)" height="48" id="mini_server.IpcServer.MessageHeader" style="stroke: #A80036; stroke-width: 1.5;" width="196" x="964" y="549"/><ellipse cx="979" cy="565" fill="#ADD1B2" rx="11" ry="11" style="stroke: #A80036; stroke-width: 1.0;"/><path d="M981.9688,570.6406 Q981.3906,570.9375 980.75,571.0781 Q980.1094,571.2344 979.4063,571.2344 Q976.9063,571.2344 975.5781,569.5938 Q974.2656,567.9375 974.2656,564.8125 Q974.2656,561.6875 975.5781,560.0313 Q976.9063,558.375 979.4063,558.375 Q980.1094,558.375 980.75,558.5313 Q981.4063,558.6875 981.9688,558.9844 L981.9688,561.7031 Q981.3438,561.125 980.75,560.8594 Q980.1563,560.5781 979.5313,560.5781 Q978.1875,560.5781 977.5,561.6563 Q976.8125,562.7188 976.8125,564.8125 Q976.8125,566.9063 977.5,567.9844 Q978.1875,569.0469 979.5313,569.0469 Q980.1563,569.0469 980.75,568.7813 Q981.3438,568.5 981.9688,567.9219 L981.9688,570.6406 Z "/><text fill="#000000" font-family="sans-serif" font-size="12" lengthAdjust="spacingAndGlyphs" textLength="164" x="993" y="569.1543">IpcServer.MessageHeader</text><line style="stroke: #A80036; stroke-width: 1.5;" x1="965" x2="1159" y1="581" y2="581"/><line style="stroke: #A80036; stroke-width: 1.5;" x1="965" x2="1159" y1="589" y2="589"/><!--class mini_server.IpcServer.MessageTypeEnum--><rect fill="#FEFECE" filter="url(#ft7qkpa583px8)" height="48" id="mini_server.IpcServer.MessageTypeEnum" style="stroke: #A80036; stroke-width: 1.5;" width="214" x="955" y="466"/><ellipse cx="970" cy="482" fill="#ADD1B2" rx="11" ry="11" style="stroke: #A80036; stroke-width: 1.0;"/><path d="M972.9688,487.6406 Q972.3906,487.9375 971.75,488.0781 Q971.1094,488.2344 970.4063,488.2344 Q967.9063,488.2344 966.5781,486.5938 Q965.2656,484.9375 965.2656,481.8125 Q965.2656,478.6875 966.5781,477.0313 Q967.9063,475.375 970.4063,475.375 Q971.1094,475.375 971.75,475.5313 Q972.4063,475.6875 972.9688,475.9844 L972.9688,478.7031 Q972.3438,478.125 971.75,477.8594 Q971.1563,477.5781 970.5313,477.5781 Q969.1875,477.5781 968.5,478.6563 Q967.8125,479.7188 967.8125,481.8125 Q967.8125,483.9063 968.5,484.9844 Q969.1875,486.0469 970.5313,486.0469 Q971.1563,486.0469 971.75,485.7813 Q972.3438,485.5 972.9688,484.9219 L972.9688,487.6406 Z "/><text fill="#000000" font-family="sans-serif" font-size="12" lengthAdjust="spacingAndGlyphs" textLength="182" x="984" y="486.1543">IpcServer.MessageTypeEnum</text><line style="stroke: #A80036; stroke-width: 1.5;" x1="956" x2="1168" y1="498" y2="498"/><line style="stroke: #A80036; stroke-width: 1.5;" x1="956" x2="1168" y1="506" y2="506"/><!--link mini_server.IpcServer to mini_server.IpcServer--><path d="M365.52,400.12 C381.85,381.78 415.18,369.5 465.5,369.5 C519.63,369.5 554.09,383.71 568.89,404.38 " fill="none" id="mini_server.IpcServer-mini_server.IpcServer" style="stroke: #A80036; stroke-width: 1.0; stroke-dasharray: 7.0,7.0;"/><polygon fill="#A80036" points="362.11,404.38,370.8537,399.8471,365.2317,400.4743,364.6045,394.8523,362.11,404.38" style="stroke: #A80036; stroke-width: 1.0;"/><!--link mini_server.IpcServer to mini_server.IpcServer.MessageHeader--><path d="M908.01,562.19 C927.81,563.59 946.49,564.91 963.54,566.11 " fill="none" id="mini_server.IpcServer-mini_server.IpcServer.MessageHeader" style="stroke: #A80036; stroke-width: 1.0;"/><ellipse cx="901.0001" cy="561.6935" fill="#FFFFFF" rx="8" ry="8" style="stroke: #A80036; stroke-width: 1.0;"/><line style="stroke: #A80036; stroke-width: 1.0;" x1="908.9803" x2="893.02" y1="562.257" y2="561.13"/><line style="stroke: #A80036; stroke-width: 1.0;" x1="900.4366" x2="901.5636" y1="569.6736" y2="553.7134"/><!--link mini_server.IpcServer to mini_server.IpcServer.MessageTypeEnum--><path d="M908.2,500.54 C924.51,499.41 940.05,498.34 954.54,497.34 " fill="none" id="mini_server.IpcServer-mini_server.IpcServer.MessageTypeEnum" style="stroke: #A80036; stroke-width: 1.0;"/><ellipse cx="901.0012" cy="501.0317" fill="#FFFFFF" rx="8" ry="8" style="stroke: #A80036; stroke-width: 1.0;"/><line style="stroke: #A80036; stroke-width: 1.0;" x1="908.9824" x2="893.02" y1="500.4833" y2="501.58"/><line style="stroke: #A80036; stroke-width: 1.0;" x1="901.5495" x2="900.4529" y1="509.0129" y2="493.0505"/><!--link mini_server.Encapsulation to mini_server.HandlerInterface--><!--link mini_server.HandlerInterface to mini_server.SocketFactory--><!--link mini_server.Encapsulation to mini_server.IpcServer::MessageTypeEnum--><!--link mini_server.IpcServer::MessageTypeEnum to mini_server.IpcServer::MessageHeader--><!--
@startuml
left to right direction






namespace mini_server {
	class Encapsulation {
		+{static} getHeader(std::vector<char>& frame) : T*
		+{static} getBody(const std::vector<char>& frame) : char*
		+{static} encapsulate(const void* buffer, size_t bufferSize, const T& header) : std::vector<char>
	}

	abstract class HandlerInterface {
		+{abstract} handle(int socket, const std::string& in, std::string& out) : void
	}

	class IpcServer {
		+isRunning() : bool
		+getClientsCount() : size_t {query}
		+createFrame(const void* buffer, size_t bufferSize, unsigned long expire, const IpcServer::MessageTypeEnum& type) : std::vector<char> {query}
		+getExpire(unsigned long ttl) : unsigned long {query}
		+broadcast(const std::string& message) : void
		+broadcast(const void* buffer, size_t bufferSize, unsigned long ttl, MessageTypeEnum type) : void
		+runClient() : void
		+send(int s, const std::string& message, unsigned long ttl, MessageTypeEnum type) : void
		+send(int s, const void* buffer, size_t bufferSize, unsigned long ttl, MessageTypeEnum type) : void
		+sendFrame(int s, const std::vector<char>& frame) : void
		+serve() : void
		+setOnClose(CloseHandler onClose) : void
		+setOnMessage(StringMessageHandler onMessage) : void
		+setOnMessage(BinaryMessageHandler onMessage) : void
		+setSocket(int _socket) : void
		+stop() : void
	}

	class SocketFactory {
		+{static} createClientSocket(const std::string& name) : int
		+{static} createServerSocket(const std::string& name, int maxConnections) : int
	}

	enum IpcServer::MessageTypeEnum {
		TYPE_ACK
		TYPE_CONTROL
		TYPE_MAT
		TYPE_TELEMETRY
	}

	class IpcServer::MessageHeader {
		+type : MessageTypeEnum
		+magick : unsigned int
		+size : unsigned int
		+expire : unsigned long
	}
}















mini_server.IpcServer <.. mini_server.IpcServer







mini_server.IpcServer +- - mini_server.IpcServer.MessageHeader


mini_server.IpcServer +- - mini_server.IpcServer.MessageTypeEnum




@enduml

PlantUML version 1.2018.13(Mon Nov 26 22:11:51 YEKT 2018)
(GPL source distribution)
Java Runtime: Java(TM) SE Runtime Environment
JVM: Java HotSpot(TM) 64-Bit Server VM
Java Version: 19.0.1+10-21
Operating System: Linux
OS Version: 6.12.60
Default Encoding: UTF-8
Language: ru
Country: RU
--></g></svg>