<?xml version="1.0" encoding="UTF-8" standalone="no"?><svg xmlns="http://www.w3.org/2000/svg" xmlns:xlink="http://www.w3.org/1999/xlink" contentScriptType="application/ecmascript" contentStyleType="text/css" height="462px" preserveAspectRatio="none" style="width:697px;height:462px;" version="1.1" viewBox="0 0 697 462" width="697px" zoomAndPan="magnify"><defs><filter height="300%" id="f7ivhtjrprwmg" width="300%" x="-1" y="-1"><feGaussianBlur result="blurOut" stdDeviation="2.0"/><feColorMatrix in="blurOut" result="blurOut2" type="matrix" values="0 0 0 0 0 0 0 0 0 0 0 0 0 0 0 0 0 0 .4 0"/><feOffset dx="4.0" dy="4.0" in="blurOut2" result="blurOut3"/><feBlend in="SourceGraphic" in2="blurOut3" mode="normal"/></filter></defs><g><!--class ConnectionHandler--><rect fill="#FEFECE" filter="url(#f7ivhtjrprwmg)" height="112.0234" id="ConnectionHandler" style="stroke: #A80036; stroke-width: 1.5;" width="680" x="6" y="180"/><ellipse cx="281.75" cy="196" fill="#ADD1B2" rx="11" ry="11" style="stroke: #A80036; stroke-width: 1.0;"/><path d="M284.7188,201.6406 Q284.1406,201.9375 283.5,202.0781 Q282.8594,202.2344 282.1563,202.2344 Q279.6563,202.2344 278.3281,200.5938 Q277.0156,198.9375 277.0156,195.8125 Q277.0156,192.6875 278.3281,191.0313 Q279.6563,189.375 282.1563,189.375 Q282.8594,189.375 283.5,189.5313 Q284.1563,189.6875 284.7188,189.9844 L284.7188,192.7031 Q284.0938,192.125 283.5,191.8594 Q282.9063,191.5781 282.2813,191.5781 Q280.9375,191.5781 280.25,192.6563 Q279.5625,193.7188 279.5625,195.8125 Q279.5625,197.9063 280.25,198.9844 Q280.9375,200.0469 282.2813,200.0469 Q282.9063,200.0469 283.5,199.7813 Q284.0938,199.5 284.7188,198.9219 L284.7188,201.6406 Z "/><text fill="#000000" font-family="sans-serif" font-size="12" lengthAdjust="spacingAndGlyphs" textLength="120" x="302.25" y="200.1543">ConnectionHandler</text><line style="stroke: #A80036; stroke-width: 1.5;" x1="7" x2="685" y1="212" y2="212"/><line style="stroke: #A80036; stroke-width: 1.5;" x1="7" x2="685" y1="220" y2="220"/><ellipse cx="17" cy="231.9023" fill="#84BE84" rx="3" ry="3" style="stroke: #038048; stroke-width: 1.0;"/><text fill="#000000" font-family="sans-serif" font-size="11" lengthAdjust="spacingAndGlyphs" textLength="654" x="26" y="234.2104">ConnectionHandler(WebSocket* connection, int socketFd, int outputWidth, int outputHeight, int sendingQueueDepth)</text><ellipse cx="17" cy="244.707" fill="#84BE84" rx="3" ry="3" style="stroke: #038048; stroke-width: 1.0;"/><text fill="#000000" font-family="sans-serif" font-size="11" lengthAdjust="spacingAndGlyphs" textLength="283" x="26" y="247.0151">onData(const uint8_t* data, size_t dataSize) : void</text><ellipse cx="17" cy="257.5117" fill="#84BE84" rx="3" ry="3" style="stroke: #038048; stroke-width: 1.0;"/><text fill="#000000" font-family="sans-serif" font-size="11" lengthAdjust="spacingAndGlyphs" textLength="90" x="26" y="259.8198">selfStop() : void</text><ellipse cx="17" cy="270.3164" fill="#84BE84" rx="3" ry="3" style="stroke: #038048; stroke-width: 1.0;"/><text fill="#000000" font-family="sans-serif" font-size="11" lengthAdjust="spacingAndGlyphs" textLength="70" x="26" y="272.6245">start() : void</text><ellipse cx="17" cy="283.1211" fill="#84BE84" rx="3" ry="3" style="stroke: #038048; stroke-width: 1.0;"/><text fill="#000000" font-family="sans-serif" font-size="11" lengthAdjust="spacingAndGlyphs" textLength="68" x="26" y="285.4292">stop() : void</text><!--class SocketProxy--><rect fill="#FEFECE" filter="url(#f7ivhtjrprwmg)" height="112.0234" id="SocketProxy" style="stroke: #A80036; stroke-width: 1.5;" width="397" x="147.5" y="8"/><ellipse cx="303.75" cy="24" fill="#ADD1B2" rx="11" ry="11" style="stroke: #A80036; stroke-width: 1.0;"/><path d="M306.7188,29.6406 Q306.1406,29.9375 305.5,30.0781 Q304.8594,30.2344 304.1563,30.2344 Q301.6563,30.2344 300.3281,28.5938 Q299.0156,26.9375 299.0156,23.8125 Q299.0156,20.6875 300.3281,19.0313 Q301.6563,17.375 304.1563,17.375 Q304.8594,17.375 305.5,17.5313 Q306.1563,17.6875 306.7188,17.9844 L306.7188,20.7031 Q306.0938,20.125 305.5,19.8594 Q304.9063,19.5781 304.2813,19.5781 Q302.9375,19.5781 302.25,20.6563 Q301.5625,21.7188 301.5625,23.8125 Q301.5625,25.9063 302.25,26.9844 Q302.9375,28.0469 304.2813,28.0469 Q304.9063,28.0469 305.5,27.7813 Q306.0938,27.5 306.7188,26.9219 L306.7188,29.6406 Z "/><text fill="#000000" font-family="sans-serif" font-size="12" lengthAdjust="spacingAndGlyphs" textLength="76" x="324.25" y="28.1543">SocketProxy</text><line style="stroke: #A80036; stroke-width: 1.5;" x1="148.5" x2="543.5" y1="40" y2="40"/><line style="stroke: #A80036; stroke-width: 1.5;" x1="148.5" x2="543.5" y1="48" y2="48"/><ellipse cx="158.5" cy="59.9023" fill="#84BE84" rx="3" ry="3" style="stroke: #038048; stroke-width: 1.0;"/><text fill="#000000" font-family="sans-serif" font-size="11" lengthAdjust="spacingAndGlyphs" textLength="351" x="167.5" y="62.2104">SocketProxy(std::string socketName, int sendingQueueDepth)</text><ellipse cx="158.5" cy="72.707" fill="#84BE84" rx="3" ry="3" style="stroke: #038048; stroke-width: 1.0;"/><text fill="#000000" font-family="sans-serif" font-size="11" lengthAdjust="spacingAndGlyphs" textLength="235" x="167.5" y="75.0151">onConnect(WebSocket* connection) : void</text><ellipse cx="158.5" cy="85.5117" fill="#84BE84" rx="3" ry="3" style="stroke: #038048; stroke-width: 1.0;"/><text fill="#000000" font-family="sans-serif" font-size="11" lengthAdjust="spacingAndGlyphs" textLength="289" x="167.5" y="87.8198">onData(WebSocket* connection, const char*) : void</text><ellipse cx="158.5" cy="98.3164" fill="#84BE84" rx="3" ry="3" style="stroke: #038048; stroke-width: 1.0;"/><text fill="#000000" font-family="sans-serif" font-size="11" lengthAdjust="spacingAndGlyphs" textLength="371" x="167.5" y="100.6245">onData(WebSocket* connection, const uint8_t* data, size_t) : void</text><ellipse cx="158.5" cy="111.1211" fill="#84BE84" rx="3" ry="3" style="stroke: #038048; stroke-width: 1.0;"/><text fill="#000000" font-family="sans-serif" font-size="11" lengthAdjust="spacingAndGlyphs" textLength="251" x="167.5" y="113.4292">onDisconnect(WebSocket* connection) : void</text><!--class ConnectionHandler::MessageTypeEnum--><rect fill="#FEFECE" filter="url(#f7ivhtjrprwmg)" height="99.2188" id="ConnectionHandler::MessageTypeEnum" style="stroke: #A80036; stroke-width: 1.5;" width="280" x="53" y="352"/><ellipse cx="68" cy="368" fill="#EB937F" rx="11" ry="11" style="stroke: #A80036; stroke-width: 1.0;"/><path d="M72.1094,374 L64.3906,374 L64.3906,361.6094 L72.1094,361.6094 L72.1094,363.7656 L66.8438,363.7656 L66.8438,366.4375 L71.6094,366.4375 L71.6094,368.5938 L66.8438,368.5938 L66.8438,371.8438 L72.1094,371.8438 L72.1094,374 Z "/><text fill="#000000" font-family="sans-serif" font-size="12" lengthAdjust="spacingAndGlyphs" textLength="248" x="82" y="372.1543">ConnectionHandler::MessageTypeEnum</text><line style="stroke: #A80036; stroke-width: 1.5;" x1="54" x2="332" y1="384" y2="384"/><text fill="#000000" font-family="sans-serif" font-size="11" lengthAdjust="spacingAndGlyphs" textLength="56" x="59" y="398.2104">TYPE_ACK</text><text fill="#000000" font-family="sans-serif" font-size="11" lengthAdjust="spacingAndGlyphs" textLength="88" x="59" y="411.0151">TYPE_CONTROL</text><text fill="#000000" font-family="sans-serif" font-size="11" lengthAdjust="spacingAndGlyphs" textLength="57" x="59" y="423.8198">TYPE_MAT</text><text fill="#000000" font-family="sans-serif" font-size="11" lengthAdjust="spacingAndGlyphs" textLength="98" x="59" y="436.6245">TYPE_TELEMETRY</text><line style="stroke: #A80036; stroke-width: 1.5;" x1="54" x2="332" y1="443.2188" y2="443.2188"/><!--class ConnectionHandler::MessageHeader--><rect fill="#FEFECE" filter="url(#f7ivhtjrprwmg)" height="99.2188" id="ConnectionHandler::MessageHeader" style="stroke: #A80036; stroke-width: 1.5;" width="262" x="368" y="352"/><ellipse cx="383" cy="368" fill="#ADD1B2" rx="11" ry="11" style="stroke: #A80036; stroke-width: 1.0;"/><path d="M385.9688,373.6406 Q385.3906,373.9375 384.75,374.0781 Q384.1094,374.2344 383.4063,374.2344 Q380.9063,374.2344 379.5781,372.5938 Q378.2656,370.9375 378.2656,367.8125 Q378.2656,364.6875 379.5781,363.0313 Q380.9063,361.375 383.4063,361.375 Q384.1094,361.375 384.75,361.5313 Q385.4063,361.6875 385.9688,361.9844 L385.9688,364.7031 Q385.3438,364.125 384.75,363.8594 Q384.1563,363.5781 383.5313,363.5781 Q382.1875,363.5781 381.5,364.6563 Q380.8125,365.7188 380.8125,367.8125 Q380.8125,369.9063 381.5,370.9844 Q382.1875,372.0469 383.5313,372.0469 Q384.1563,372.0469 384.75,371.7813 Q385.3438,371.5 385.9688,370.9219 L385.9688,373.6406 Z "/><text fill="#000000" font-family="sans-serif" font-size="12" lengthAdjust="spacingAndGlyphs" textLength="230" x="397" y="372.1543">ConnectionHandler::MessageHeader</text><line style="stroke: #A80036; stroke-width: 1.5;" x1="369" x2="629" y1="384" y2="384"/><ellipse cx="379" cy="395.9023" fill="none" rx="3" ry="3" style="stroke: #038048; stroke-width: 1.0;"/><text fill="#000000" font-family="sans-serif" font-size="11" lengthAdjust="spacingAndGlyphs" textLength="146" x="388" y="398.2104">type : MessageTypeEnum</text><ellipse cx="379" cy="408.707" fill="none" rx="3" ry="3" style="stroke: #038048; stroke-width: 1.0;"/><text fill="#000000" font-family="sans-serif" font-size="11" lengthAdjust="spacingAndGlyphs" textLength="122" x="388" y="411.0151">magick : unsigned int</text><ellipse cx="379" cy="421.5117" fill="none" rx="3" ry="3" style="stroke: #038048; stroke-width: 1.0;"/><text fill="#000000" font-family="sans-serif" font-size="11" lengthAdjust="spacingAndGlyphs" textLength="104" x="388" y="423.8198">size : unsigned int</text><ellipse cx="379" cy="434.3164" fill="none" rx="3" ry="3" style="stroke: #038048; stroke-width: 1.0;"/><text fill="#000000" font-family="sans-serif" font-size="11" lengthAdjust="spacingAndGlyphs" textLength="103" x="388" y="436.6245">ttl : unsigned long</text><line style="stroke: #A80036; stroke-width: 1.5;" x1="369" x2="629" y1="443.2188" y2="443.2188"/><!--link SocketProxy to ConnectionHandler--><path d="M346,133.48 C346,148.87 346,165.02 346,179.79 " fill="none" id="SocketProxy-ConnectionHandler" style="stroke: #A80036; stroke-width: 1.0;"/><polygon fill="#FFFFFF" points="346,120.19,342,126.19,346,132.19,350,126.19,346,120.19" style="stroke: #A80036; stroke-width: 1.0;"/><!--link ConnectionHandler to ConnectionHandler::MessageHeader--><path d="M408.13,303.39 C423.27,319.57 439.19,336.59 453.41,351.78 " fill="none" id="ConnectionHandler-ConnectionHandler::MessageHeader" style="stroke: #A80036; stroke-width: 1.0;"/><ellipse cx="403.2632" cy="298.1941" fill="#FFFFFF" rx="8" ry="8" style="stroke: #A80036; stroke-width: 1.0;"/><line style="stroke: #A80036; stroke-width: 1.0;" x1="408.7263" x2="397.8" y1="304.0383" y2="292.35"/><line style="stroke: #A80036; stroke-width: 1.0;" x1="397.419" x2="409.1073" y1="303.6573" y2="292.731"/><!--link ConnectionHandler to ConnectionHandler::MessageTypeEnum--><path d="M283.87,303.39 C268.73,319.57 252.81,336.59 238.59,351.78 " fill="none" id="ConnectionHandler-ConnectionHandler::MessageTypeEnum" style="stroke: #A80036; stroke-width: 1.0;"/><ellipse cx="288.7368" cy="298.1941" fill="#FFFFFF" rx="8" ry="8" style="stroke: #A80036; stroke-width: 1.0;"/><line style="stroke: #A80036; stroke-width: 1.0;" x1="283.2737" x2="294.2" y1="304.0383" y2="292.35"/><line style="stroke: #A80036; stroke-width: 1.0;" x1="282.8927" x2="294.581" y1="292.731" y2="303.6573"/><!--
@startuml






class ConnectionHandler {
	+ConnectionHandler(WebSocket* connection, int socketFd, int outputWidth, int outputHeight, int sendingQueueDepth)
	+onData(const uint8_t* data, size_t dataSize) : void
	+selfStop() : void
	+start() : void
	+stop() : void
}


class SocketProxy {
	+SocketProxy(std::string socketName, int sendingQueueDepth)
	+onConnect(WebSocket* connection) : void
	+onData(WebSocket* connection, const char*) : void
	+onData(WebSocket* connection, const uint8_t* data, size_t) : void
	+onDisconnect(WebSocket* connection) : void
}


enum ConnectionHandler::MessageTypeEnum {
	TYPE_ACK
	TYPE_CONTROL
	TYPE_MAT
	TYPE_TELEMETRY
}


class ConnectionHandler::MessageHeader {
	+type : MessageTypeEnum
	+magick : unsigned int
	+size : unsigned int
	+ttl : unsigned long
}










SocketProxy o- - ConnectionHandler












ConnectionHandler +- - ConnectionHandler::MessageHeader


ConnectionHandler +- - ConnectionHandler::MessageTypeEnum




@enduml

PlantUML version 1.2018.13(Mon Nov 26 22:11:51 YEKT 2018)
(GPL source distribution)
Java Runtime: Java(TM) SE Runtime Environment
JVM: Java HotSpot(TM) 64-Bit Server VM
Java Version: 19.0.1+10-21
Operating System: Linux
OS Version: 6.12.60
Default Encoding: UTF-8
Language: ru
Country: RU
--></g></svg>