<?xml version="1.0" encoding="UTF-8" standalone="no"?><svg xmlns="http://www.w3.org/2000/svg" xmlns:xlink="http://www.w3.org/1999/xlink" contentScriptType="application/ecmascript" contentStyleType="text/css" height="749px" preserveAspectRatio="none" style="width:855px;height:749px;" version="1.1" viewBox="0 0 855 749" width="855px" zoomAndPan="magnify"><defs><filter height="300%" id="f17bch2fu4mly6" width="300%" x="-1" y="-1"><feGaussianBlur result="blurOut" stdDeviation="2.0"/><feColorMatrix in="blurOut" result="blurOut2" type="matrix" values="0 0 0 0 0 0 0 0 0 0 0 0 0 0 0 0 0 0 .4 0"/><feOffset dx="4.0" dy="4.0" in="blurOut2" result="blurOut3"/><feBlend in="SourceGraphic" in2="blurOut3" mode="normal"/></filter></defs><g><!--cluster mini_server--><polygon fill="#FFFFFF" filter="url(#f17bch2fu4mly6)" points="22,24,119,24,126,46.2969,833,46.2969,833,737,22,737,22,24" style="stroke: #000000; stroke-width: 1.5;"/><line style="stroke: #000000; stroke-width: 1.5;" x1="22" x2="126" y1="46.2969" y2="46.2969"/><text fill="#000000" font-family="sans-serif" font-size="14" font-weight="bold" lengthAdjust="spacingAndGlyphs" textLength="91" x="26" y="38.9951">mini_server</text><!--class mini_server.Encapsulation--><rect fill="#FEFECE" filter="url(#f17bch2fu4mly6)" height="99.2188" id="mini_server.Encapsulation" style="stroke: #A80036; stroke-width: 1.5;" width="418" x="79.5" y="264.5"/><ellipse cx="239.75" cy="280.5" fill="#ADD1B2" rx="11" ry="11" style="stroke: #A80036; stroke-width: 1.0;"/><path d="M242.7188,286.1406 Q242.1406,286.4375 241.5,286.5781 Q240.8594,286.7344 240.1563,286.7344 Q237.6563,286.7344 236.3281,285.0938 Q235.0156,283.4375 235.0156,280.3125 Q235.0156,277.1875 236.3281,275.5313 Q237.6563,273.875 240.1563,273.875 Q240.8594,273.875 241.5,274.0313 Q242.1563,274.1875 242.7188,274.4844 L242.7188,277.2031 Q242.0938,276.625 241.5,276.3594 Q240.9063,276.0781 240.2813,276.0781 Q238.9375,276.0781 238.25,277.1563 Q237.5625,278.2188 237.5625,280.3125 Q237.5625,282.4063 238.25,283.4844 Q238.9375,284.5469 240.2813,284.5469 Q240.9063,284.5469 241.5,284.2813 Q242.0938,284 242.7188,283.4219 L242.7188,286.1406 Z "/><text fill="#000000" font-family="sans-serif" font-size="12" lengthAdjust="spacingAndGlyphs" textLength="89" x="260.25" y="284.6543">Encapsulation</text><line style="stroke: #A80036; stroke-width: 1.5;" x1="80.5" x2="496.5" y1="296.5" y2="296.5"/><text fill="#000000" font-family="sans-serif" font-size="11" lengthAdjust="spacingAndGlyphs" textLength="104" x="85.5" y="310.7104">std::vector&lt;char&gt;</text><line style="stroke: #A80036; stroke-width: 1.5;" x1="80.5" x2="496.5" y1="317.3047" y2="317.3047"/><ellipse cx="90.5" cy="329.207" fill="#84BE84" rx="3" ry="3" style="stroke: #038048; stroke-width: 1.0;"/><text fill="#000000" font-family="sans-serif" font-size="11" lengthAdjust="spacingAndGlyphs" text-decoration="underline" textLength="244" x="99.5" y="331.5151">getHeader(std::vector&lt;char&gt;&amp; frame) : T*</text><line style="stroke: #000000; stroke-width: 1.0;" x1="99.5" x2="343.5" y1="333.5151" y2="333.5151"/><ellipse cx="90.5" cy="342.0117" fill="#84BE84" rx="3" ry="3" style="stroke: #038048; stroke-width: 1.0;"/><text fill="#000000" font-family="sans-serif" font-size="11" lengthAdjust="spacingAndGlyphs" text-decoration="underline" textLength="284" x="99.5" y="344.3198">getBody(const std::vector&lt;char&gt;&amp; frame) : char*</text><line style="stroke: #000000; stroke-width: 1.0;" x1="99.5" x2="383.5" y1="346.3198" y2="346.3198"/><ellipse cx="90.5" cy="354.8164" fill="#84BE84" rx="3" ry="3" style="stroke: #038048; stroke-width: 1.0;"/><text fill="#000000" font-family="sans-serif" font-size="11" lengthAdjust="spacingAndGlyphs" text-decoration="underline" textLength="392" x="99.5" y="357.1245">encapsulate(const void* buffer, size_t bufferSize, const T&amp; header) :</text><line style="stroke: #000000; stroke-width: 1.0;" x1="99.5" x2="491.5" y1="359.1245" y2="359.1245"/><!--class mini_server.HandlerInterface--><rect fill="#FEFECE" filter="url(#f17bch2fu4mly6)" height="60.8047" id="mini_server.HandlerInterface" style="stroke: #A80036; stroke-width: 1.5;" width="380" x="98.5" y="168.5"/><ellipse cx="231.25" cy="184.5" fill="#A9DCDF" rx="11" ry="11" style="stroke: #A80036; stroke-width: 1.0;"/><path d="M231.3594,179.8438 L230.2031,184.9219 L232.5313,184.9219 L231.3594,179.8438 Z M229.875,177.6094 L232.8594,177.6094 L236.2188,190 L233.7656,190 L233,186.9375 L229.7188,186.9375 L228.9688,190 L226.5313,190 L229.875,177.6094 Z "/><text fill="#000000" font-family="sans-serif" font-size="12" font-style="italic" lengthAdjust="spacingAndGlyphs" textLength="106" x="251.75" y="188.6543">HandlerInterface</text><line style="stroke: #A80036; stroke-width: 1.5;" x1="99.5" x2="477.5" y1="200.5" y2="200.5"/><line style="stroke: #A80036; stroke-width: 1.5;" x1="99.5" x2="477.5" y1="208.5" y2="208.5"/><ellipse cx="109.5" cy="220.4023" fill="#84BE84" rx="3" ry="3" style="stroke: #038048; stroke-width: 1.0;"/><text fill="#000000" font-family="sans-serif" font-size="11" font-style="italic" lengthAdjust="spacingAndGlyphs" textLength="354" x="118.5" y="222.7104">handle(int socket, const std::string&amp; in, std::string&amp; out) : void</text><!--class mini_server.IpcServer--><rect fill="#FEFECE" filter="url(#f17bch2fu4mly6)" height="304.0938" id="mini_server.IpcServer" style="stroke: #A80036; stroke-width: 1.5;" width="501" x="38" y="417"/><ellipse cx="255.25" cy="433" fill="#ADD1B2" rx="11" ry="11" style="stroke: #A80036; stroke-width: 1.0;"/><path d="M258.2188,438.6406 Q257.6406,438.9375 257,439.0781 Q256.3594,439.2344 255.6563,439.2344 Q253.1563,439.2344 251.8281,437.5938 Q250.5156,435.9375 250.5156,432.8125 Q250.5156,429.6875 251.8281,428.0313 Q253.1563,426.375 255.6563,426.375 Q256.3594,426.375 257,426.5313 Q257.6563,426.6875 258.2188,426.9844 L258.2188,429.7031 Q257.5938,429.125 257,428.8594 Q256.4063,428.5781 255.7813,428.5781 Q254.4375,428.5781 253.75,429.6563 Q253.0625,430.7188 253.0625,432.8125 Q253.0625,434.9063 253.75,435.9844 Q254.4375,437.0469 255.7813,437.0469 Q256.4063,437.0469 257,436.7813 Q257.5938,436.5 258.2188,435.9219 L258.2188,438.6406 Z "/><text fill="#000000" font-family="sans-serif" font-size="12" lengthAdjust="spacingAndGlyphs" textLength="58" x="275.75" y="437.1543">IpcServer</text><line style="stroke: #A80036; stroke-width: 1.5;" x1="39" x2="538" y1="449" y2="449"/><line style="stroke: #A80036; stroke-width: 1.5;" x1="39" x2="538" y1="457" y2="457"/><ellipse cx="49" cy="468.9023" fill="#84BE84" rx="3" ry="3" style="stroke: #038048; stroke-width: 1.0;"/><text fill="#000000" font-family="sans-serif" font-size="11" lengthAdjust="spacingAndGlyphs" textLength="99" x="58" y="471.2104">isRunning() : bool</text><ellipse cx="49" cy="481.707" fill="#84BE84" rx="3" ry="3" style="stroke: #038048; stroke-width: 1.0;"/><text fill="#000000" font-family="sans-serif" font-size="11" lengthAdjust="spacingAndGlyphs" textLength="192" x="58" y="484.0151">getClientsCount() : size_t {query}</text><ellipse cx="49" cy="494.5117" fill="#84BE84" rx="3" ry="3" style="stroke: #038048; stroke-width: 1.0;"/><text fill="#000000" font-family="sans-serif" font-size="11" lengthAdjust="spacingAndGlyphs" textLength="445" x="58" y="496.8198">createFrame(const void* buffer, size_t bufferSize, unsigned long expire, const</text><text fill="#000000" font-family="sans-serif" font-size="11" lengthAdjust="spacingAndGlyphs" textLength="380" x="58" y="509.6245">IpcServer::MessageTypeEnum&amp; type) : std::vector&lt;char&gt; {query}</text><ellipse cx="49" cy="520.1211" fill="#84BE84" rx="3" ry="3" style="stroke: #038048; stroke-width: 1.0;"/><text fill="#000000" font-family="sans-serif" font-size="11" lengthAdjust="spacingAndGlyphs" textLength="298" x="58" y="522.4292">getExpire(unsigned long ttl) : unsigned long {query}</text><ellipse cx="49" cy="532.9258" fill="#84BE84" rx="3" ry="3" style="stroke: #038048; stroke-width: 1.0;"/><text fill="#000000" font-family="sans-serif" font-size="11" lengthAdjust="spacingAndGlyphs" textLength="261" x="58" y="535.2339">broadcast(const std::string&amp; message) : void</text><ellipse cx="49" cy="545.7305" fill="#84BE84" rx="3" ry="3" style="stroke: #038048; stroke-width: 1.0;"/><text fill="#000000" font-family="sans-serif" font-size="11" lengthAdjust="spacingAndGlyphs" textLength="453" x="58" y="548.0386">broadcast(const void* buffer, size_t bufferSize, unsigned long ttl, MessageType</text><text fill="#000000" font-family="sans-serif" font-size="11" lengthAdjust="spacingAndGlyphs" textLength="99" x="58" y="560.8433">Enum type) : void</text><ellipse cx="49" cy="571.3398" fill="#84BE84" rx="3" ry="3" style="stroke: #038048; stroke-width: 1.0;"/><text fill="#000000" font-family="sans-serif" font-size="11" lengthAdjust="spacingAndGlyphs" textLength="94" x="58" y="573.6479">runClient() : void</text><ellipse cx="49" cy="584.1445" fill="#84BE84" rx="3" ry="3" style="stroke: #038048; stroke-width: 1.0;"/><text fill="#000000" font-family="sans-serif" font-size="11" lengthAdjust="spacingAndGlyphs" textLength="475" x="58" y="586.4526">send(int s, const std::string&amp; message, unsigned long ttl, MessageTypeEnum type</text><text fill="#000000" font-family="sans-serif" font-size="11" lengthAdjust="spacingAndGlyphs" textLength="39" x="58" y="599.2573">) : void</text><ellipse cx="49" cy="609.7539" fill="#84BE84" rx="3" ry="3" style="stroke: #038048; stroke-width: 1.0;"/><text fill="#000000" font-family="sans-serif" font-size="11" lengthAdjust="spacingAndGlyphs" textLength="443" x="58" y="612.062">send(int s, const void* buffer, size_t bufferSize, unsigned long ttl, MessageTy</text><text fill="#000000" font-family="sans-serif" font-size="11" lengthAdjust="spacingAndGlyphs" textLength="113" x="58" y="624.8667">peEnum type) : void</text><ellipse cx="49" cy="635.3633" fill="#84BE84" rx="3" ry="3" style="stroke: #038048; stroke-width: 1.0;"/><text fill="#000000" font-family="sans-serif" font-size="11" lengthAdjust="spacingAndGlyphs" textLength="327" x="58" y="637.6714">sendFrame(int s, const std::vector&lt;char&gt;&amp; frame) : void</text><ellipse cx="49" cy="648.168" fill="#84BE84" rx="3" ry="3" style="stroke: #038048; stroke-width: 1.0;"/><text fill="#000000" font-family="sans-serif" font-size="11" lengthAdjust="spacingAndGlyphs" textLength="75" x="58" y="650.4761">serve() : void</text><ellipse cx="49" cy="660.9727" fill="#84BE84" rx="3" ry="3" style="stroke: #038048; stroke-width: 1.0;"/><text fill="#000000" font-family="sans-serif" font-size="11" lengthAdjust="spacingAndGlyphs" textLength="235" x="58" y="663.2808">setOnClose(CloseHandler onClose) : void</text><ellipse cx="49" cy="673.7773" fill="#84BE84" rx="3" ry="3" style="stroke: #038048; stroke-width: 1.0;"/><text fill="#000000" font-family="sans-serif" font-size="11" lengthAdjust="spacingAndGlyphs" textLength="326" x="58" y="676.0854">setOnMessage(StringMessageHandler onMessage) : void</text><ellipse cx="49" cy="686.582" fill="#84BE84" rx="3" ry="3" style="stroke: #038048; stroke-width: 1.0;"/><text fill="#000000" font-family="sans-serif" font-size="11" lengthAdjust="spacingAndGlyphs" textLength="328" x="58" y="688.8901">setOnMessage(BinaryMessageHandler onMessage) : void</text><ellipse cx="49" cy="699.3867" fill="#84BE84" rx="3" ry="3" style="stroke: #038048; stroke-width: 1.0;"/><text fill="#000000" font-family="sans-serif" font-size="11" lengthAdjust="spacingAndGlyphs" textLength="160" x="58" y="701.6948">setSocket(int _socket) : void</text><ellipse cx="49" cy="712.1914" fill="#84BE84" rx="3" ry="3" style="stroke: #038048; stroke-width: 1.0;"/><text fill="#000000" font-family="sans-serif" font-size="11" lengthAdjust="spacingAndGlyphs" textLength="68" x="58" y="714.4995">stop() : void</text><!--class mini_server.SocketFactory--><rect fill="#FEFECE" filter="url(#f17bch2fu4mly6)" height="73.6094" id="mini_server.SocketFactory" style="stroke: #A80036; stroke-width: 1.5;" width="432" x="72.5" y="59"/><ellipse cx="239.75" cy="75" fill="#ADD1B2" rx="11" ry="11" style="stroke: #A80036; stroke-width: 1.0;"/><path d="M242.7188,80.6406 Q242.1406,80.9375 241.5,81.0781 Q240.8594,81.2344 240.1563,81.2344 Q237.6563,81.2344 236.3281,79.5938 Q235.0156,77.9375 235.0156,74.8125 Q235.0156,71.6875 236.3281,70.0313 Q237.6563,68.375 240.1563,68.375 Q240.8594,68.375 241.5,68.5313 Q242.1563,68.6875 242.7188,68.9844 L242.7188,71.7031 Q242.0938,71.125 241.5,70.8594 Q240.9063,70.5781 240.2813,70.5781 Q238.9375,70.5781 238.25,71.6563 Q237.5625,72.7188 237.5625,74.8125 Q237.5625,76.9063 238.25,77.9844 Q238.9375,79.0469 240.2813,79.0469 Q240.9063,79.0469 241.5,78.7813 Q242.0938,78.5 242.7188,77.9219 L242.7188,80.6406 Z "/><text fill="#000000" font-family="sans-serif" font-size="12" lengthAdjust="spacingAndGlyphs" textLength="89" x="260.25" y="79.1543">SocketFactory</text><line style="stroke: #A80036; stroke-width: 1.5;" x1="73.5" x2="503.5" y1="91" y2="91"/><line style="stroke: #A80036; stroke-width: 1.5;" x1="73.5" x2="503.5" y1="99" y2="99"/><ellipse cx="83.5" cy="110.9023" fill="#84BE84" rx="3" ry="3" style="stroke: #038048; stroke-width: 1.0;"/><text fill="#000000" font-family="sans-serif" font-size="11" lengthAdjust="spacingAndGlyphs" text-decoration="underline" textLength="280" x="92.5" y="113.2104">createClientSocket(const std::string&amp; name) : int</text><line style="stroke: #000000; stroke-width: 1.0;" x1="92.5" x2="372.5" y1="115.2104" y2="115.2104"/><ellipse cx="83.5" cy="123.707" fill="#84BE84" rx="3" ry="3" style="stroke: #038048; stroke-width: 1.0;"/><text fill="#000000" font-family="sans-serif" font-size="11" lengthAdjust="spacingAndGlyphs" text-decoration="underline" textLength="406" x="92.5" y="126.0151">createServerSocket(const std::string&amp; name, int maxConnections) : int</text><line style="stroke: #000000; stroke-width: 1.0;" x1="92.5" x2="498.5" y1="128.0151" y2="128.0151"/><!--class mini_server.IpcServer::MessageTypeEnum--><rect fill="#FEFECE" filter="url(#f17bch2fu4mly6)" height="99.2188" id="mini_server.IpcServer::MessageTypeEnum" style="stroke: #A80036; stroke-width: 1.5;" width="218" x="599" y="264.5"/><ellipse cx="614" cy="280.5" fill="#EB937F" rx="11" ry="11" style="stroke: #A80036; stroke-width: 1.0;"/><path d="M618.1094,286.5 L610.3906,286.5 L610.3906,274.1094 L618.1094,274.1094 L618.1094,276.2656 L612.8438,276.2656 L612.8438,278.9375 L617.6094,278.9375 L617.6094,281.0938 L612.8438,281.0938 L612.8438,284.3438 L618.1094,284.3438 L618.1094,286.5 Z "/><text fill="#000000" font-family="sans-serif" font-size="12" lengthAdjust="spacingAndGlyphs" textLength="186" x="628" y="284.6543">IpcServer::MessageTypeEnum</text><line style="stroke: #A80036; stroke-width: 1.5;" x1="600" x2="816" y1="296.5" y2="296.5"/><text fill="#000000" font-family="sans-serif" font-size="11" lengthAdjust="spacingAndGlyphs" textLength="56" x="605" y="310.7104">TYPE_ACK</text><text fill="#000000" font-family="sans-serif" font-size="11" lengthAdjust="spacingAndGlyphs" textLength="88" x="605" y="323.5151">TYPE_CONTROL</text><text fill="#000000" font-family="sans-serif" font-size="11" lengthAdjust="spacingAndGlyphs" textLength="57" x="605" y="336.3198">TYPE_MAT</text><text fill="#000000" font-family="sans-serif" font-size="11" lengthAdjust="spacingAndGlyphs" textLength="98" x="605" y="349.1245">TYPE_TELEMETRY</text><line style="stroke: #A80036; stroke-width: 1.5;" x1="600" x2="816" y1="355.7188" y2="355.7188"/><!--class mini_server.IpcServer::MessageHeader--><rect fill="#FEFECE" filter="url(#f17bch2fu4mly6)" height="99.2188" id="mini_server.IpcServer::MessageHeader" style="stroke: #A80036; stroke-width: 1.5;" width="200" x="608" y="130.5"/><ellipse cx="623" cy="146.5" fill="#ADD1B2" rx="11" ry="11" style="stroke: #A80036; stroke-width: 1.0;"/><path d="M625.9688,152.1406 Q625.3906,152.4375 624.75,152.5781 Q624.1094,152.7344 623.4063,152.7344 Q620.9063,152.7344 619.5781,151.0938 Q618.2656,149.4375 618.2656,146.3125 Q618.2656,143.1875 619.5781,141.5313 Q620.9063,139.875 623.4063,139.875 Q624.1094,139.875 624.75,140.0313 Q625.4063,140.1875 625.9688,140.4844 L625.9688,143.2031 Q625.3438,142.625 624.75,142.3594 Q624.1563,142.0781 623.5313,142.0781 Q622.1875,142.0781 621.5,143.1563 Q620.8125,144.2188 620.8125,146.3125 Q620.8125,148.4063 621.5,149.4844 Q622.1875,150.5469 623.5313,150.5469 Q624.1563,150.5469 624.75,150.2813 Q625.3438,150 625.9688,149.4219 L625.9688,152.1406 Z "/><text fill="#000000" font-family="sans-serif" font-size="12" lengthAdjust="spacingAndGlyphs" textLength="168" x="637" y="150.6543">IpcServer::MessageHeader</text><line style="stroke: #A80036; stroke-width: 1.5;" x1="609" x2="807" y1="162.5" y2="162.5"/><ellipse cx="619" cy="174.4023" fill="none" rx="3" ry="3" style="stroke: #038048; stroke-width: 1.0;"/><text fill="#000000" font-family="sans-serif" font-size="11" lengthAdjust="spacingAndGlyphs" textLength="146" x="628" y="176.7104">type : MessageTypeEnum</text><ellipse cx="619" cy="187.207" fill="none" rx="3" ry="3" style="stroke: #038048; stroke-width: 1.0;"/><text fill="#000000" font-family="sans-serif" font-size="11" lengthAdjust="spacingAndGlyphs" textLength="122" x="628" y="189.5151">magick : unsigned int</text><ellipse cx="619" cy="200.0117" fill="none" rx="3" ry="3" style="stroke: #038048; stroke-width: 1.0;"/><text fill="#000000" font-family="sans-serif" font-size="11" lengthAdjust="spacingAndGlyphs" textLength="104" x="628" y="202.3198">size : unsigned int</text><ellipse cx="619" cy="212.8164" fill="none" rx="3" ry="3" style="stroke: #038048; stroke-width: 1.0;"/><text fill="#000000" font-family="sans-serif" font-size="11" lengthAdjust="spacingAndGlyphs" textLength="127" x="628" y="215.1245">expire : unsigned long</text><line style="stroke: #A80036; stroke-width: 1.5;" x1="609" x2="807" y1="221.7188" y2="221.7188"/><!--class mini_server.IpcServer.MessageHeader--><rect fill="#FEFECE" filter="url(#f17bch2fu4mly6)" height="48" id="mini_server.IpcServer.MessageHeader" style="stroke: #A80036; stroke-width: 1.5;" width="196" x="610" y="587"/><ellipse cx="625" cy="603" fill="#ADD1B2" rx="11" ry="11" style="stroke: #A80036; stroke-width: 1.0;"/><path d="M627.9688,608.6406 Q627.3906,608.9375 626.75,609.0781 Q626.1094,609.2344 625.4063,609.2344 Q622.9063,609.2344 621.5781,607.5938 Q620.2656,605.9375 620.2656,602.8125 Q620.2656,599.6875 621.5781,598.0313 Q622.9063,596.375 625.4063,596.375 Q626.1094,596.375 626.75,596.5313 Q627.4063,596.6875 627.9688,596.9844 L627.9688,599.7031 Q627.3438,599.125 626.75,598.8594 Q626.1563,598.5781 625.5313,598.5781 Q624.1875,598.5781 623.5,599.6563 Q622.8125,600.7188 622.8125,602.8125 Q622.8125,604.9063 623.5,605.9844 Q624.1875,607.0469 625.5313,607.0469 Q626.1563,607.0469 626.75,606.7813 Q627.3438,606.5 627.9688,605.9219 L627.9688,608.6406 Z "/><text fill="#000000" font-family="sans-serif" font-size="12" lengthAdjust="spacingAndGlyphs" textLength="164" x="639" y="607.1543">IpcServer.MessageHeader</text><line style="stroke: #A80036; stroke-width: 1.5;" x1="611" x2="805" y1="619" y2="619"/><line style="stroke: #A80036; stroke-width: 1.5;" x1="611" x2="805" y1="627" y2="627"/><!--class mini_server.IpcServer.MessageTypeEnum--><rect fill="#FEFECE" filter="url(#f17bch2fu4mly6)" height="48" id="mini_server.IpcServer.MessageTypeEnum" style="stroke: #A80036; stroke-width: 1.5;" width="214" x="601" y="504"/><ellipse cx="616" cy="520" fill="#ADD1B2" rx="11" ry="11" style="stroke: #A80036; stroke-width: 1.0;"/><path d="M618.9688,525.6406 Q618.3906,525.9375 617.75,526.0781 Q617.1094,526.2344 616.4063,526.2344 Q613.9063,526.2344 612.5781,524.5938 Q611.2656,522.9375 611.2656,519.8125 Q611.2656,516.6875 612.5781,515.0313 Q613.9063,513.375 616.4063,513.375 Q617.1094,513.375 617.75,513.5313 Q618.4063,513.6875 618.9688,513.9844 L618.9688,516.7031 Q618.3438,516.125 617.75,515.8594 Q617.1563,515.5781 616.5313,515.5781 Q615.1875,515.5781 614.5,516.6563 Q613.8125,517.7188 613.8125,519.8125 Q613.8125,521.9063 614.5,522.9844 Q615.1875,524.0469 616.5313,524.0469 Q617.1563,524.0469 617.75,523.7813 Q618.3438,523.5 618.9688,522.9219 L618.9688,525.6406 Z "/><text fill="#000000" font-family="sans-serif" font-size="12" lengthAdjust="spacingAndGlyphs" textLength="182" x="630" y="524.1543">IpcServer.MessageTypeEnum</text><line style="stroke: #A80036; stroke-width: 1.5;" x1="602" x2="814" y1="536" y2="536"/><line style="stroke: #A80036; stroke-width: 1.5;" x1="602" x2="814" y1="544" y2="544"/><!--link mini_server.IpcServer to mini_server.IpcServer--><path d="M221.38,412.46 C233.68,394.02 256.05,382 288.5,382 C323.4,382 346.65,395.91 358.23,416.75 " fill="none" id="mini_server.IpcServer-mini_server.IpcServer" style="stroke: #A80036; stroke-width: 1.0; stroke-dasharray: 7.0,7.0;"/><polygon fill="#A80036" points="218.77,416.75,226.8663,411.142,221.3697,412.479,220.0327,406.9824,218.77,416.75" style="stroke: #A80036; stroke-width: 1.0;"/><!--link mini_server.IpcServer to mini_server.IpcServer.MessageHeader--><path d="M554.33,595.64 C573.84,597.6 592.64,599.5 609.98,601.24 " fill="none" id="mini_server.IpcServer-mini_server.IpcServer.MessageHeader" style="stroke: #A80036; stroke-width: 1.0;"/><ellipse cx="547.2498" cy="594.9306" fill="#FFFFFF" rx="8" ry="8" style="stroke: #A80036; stroke-width: 1.0;"/><line style="stroke: #A80036; stroke-width: 1.0;" x1="555.2097" x2="539.29" y1="595.7311" y2="594.13"/><line style="stroke: #A80036; stroke-width: 1.0;" x1="546.4493" x2="548.0504" y1="602.8904" y2="586.9707"/><!--link mini_server.IpcServer to mini_server.IpcServer.MessageTypeEnum--><path d="M554.22,543 C570.34,541.42 585.99,539.88 600.72,538.44 " fill="none" id="mini_server.IpcServer-mini_server.IpcServer.MessageTypeEnum" style="stroke: #A80036; stroke-width: 1.0;"/><ellipse cx="547.2522" cy="543.6928" fill="#FFFFFF" rx="8" ry="8" style="stroke: #A80036; stroke-width: 1.0;"/><line style="stroke: #A80036; stroke-width: 1.0;" x1="555.2143" x2="539.29" y1="542.9157" y2="544.47"/><line style="stroke: #A80036; stroke-width: 1.0;" x1="548.0293" x2="546.475" y1="551.655" y2="535.7307"/><!--link mini_server.Encapsulation to mini_server.HandlerInterface--><!--link mini_server.HandlerInterface to mini_server.SocketFactory--><!--link mini_server.Encapsulation to mini_server.IpcServer::MessageTypeEnum--><!--link mini_server.IpcServer::MessageTypeEnum to mini_server.IpcServer::MessageHeader--><!--
@startuml
left to right direction
namespace mini_server {
	class Encapsulation {
		+{static} getHeader(std::vector<char>& frame) : T*
		+{static} getBody(const std::vector<char>& frame) : char*
		+{static} encapsulate(const void* buffer, size_t bufferSize, const T& header) : 
std::vector<char>
	}
	abstract class HandlerInterface {
		+{abstract} handle(int socket, const std::string& in, std::string& out) : void
	}
	class IpcServer {
		+isRunning() : bool
		+getClientsCount() : size_t {query}
		+createFrame(const void* buffer, size_t bufferSize, unsigned long expire, const 
IpcServer::MessageTypeEnum& type) : std::vector<char> {query}
		+getExpire(unsigned long ttl) : unsigned long {query}
		+broadcast(const std::string& message) : void
		+broadcast(const void* buffer, size_t bufferSize, unsigned long ttl, MessageType
Enum type) : void
		+runClient() : void
		+send(int s, const std::string& message, unsigned long ttl, MessageTypeEnum type
) : void
		+send(int s, const void* buffer, size_t bufferSize, unsigned long ttl, MessageTy
peEnum type) : void
		+sendFrame(int s, const std::vector<char>& frame) : void
		+serve() : void
		+setOnClose(CloseHandler onClose) : void
		+setOnMessage(StringMessageHandler onMessage) : void
		+setOnMessage(BinaryMessageHandler onMessage) : void
		+setSocket(int _socket) : void
		+stop() : void
	}
	class SocketFactory {
		+{static} createClientSocket(const std::string& name) : int
		+{static} createServerSocket(const std::string& name, int maxConnections) : int
	}
	enum IpcServer::MessageTypeEnum {
		TYPE_ACK
		TYPE_CONTROL
		TYPE_MAT
		TYPE_TELEMETRY
	}
	class IpcServer::MessageHeader {
		+type : MessageTypeEnum
		+magick : unsigned int
		+size : unsigned int
		+expire : unsigned long
	}
}
mini_server.IpcServer <.. mini_server.IpcServer
mini_server.IpcServer +- - mini_server.IpcServer.MessageHeader
mini_server.IpcServer +- - mini_server.IpcServer.MessageTypeEnum
@enduml

PlantUML version 1.2018.13(Mon Nov 26 22:11:51 YEKT 2018)
(GPL source distribution)
Java Runtime: Java(TM) SE Runtime Environment
JVM: Java HotSpot(TM) 64-Bit Server VM
Java Version: 19.0.1+10-21
Operating System: Linux
OS Version: 6.12.60
Default Encoding: UTF-8
Language: ru
Country: RU
--></g></svg>